Nunito-Light.ufo
<glyph name="exclam" format="1">
  <advance width="795"/>
  <unicode hex="0021"/>
  <outline>
    <component base="period" xOffset="130" yOffset="-3"/>
    <contour>
      <point x="376" y="425" type="line" smooth="yes"/>
      <point x="378" y="362"/>
      <point x="450" y="359"/>
      <point x="456" y="425" type="curve" smooth="yes"/>
      <point x="500" y="1405" type="line" smooth="yes"/>
      <point x="503" y="1513"/>
      <point x="329" y="1512"/>
      <point x="333" y="1405" type="curve" smooth="yes"/>
    </contour>
  </outline>
</glyph>
<glyph name="asterisk" format="1">
  <advance width="1118"/>
  <unicode hex="002A"/>
  <outline>
    <contour>
      <point x="437" y="761" type="curve" smooth="yes"/>
      <point x="558" y="978" type="line"/>
      <point x="679" y="761" type="line" smooth="yes"/>
      <point x="692" y="737"/>
      <point x="710" y="727"/>
      <point x="728" y="727" type="curve" smooth="yes"/>
      <point x="761" y="727"/>
      <point x="794" y="761"/>
      <point x="794" y="795" type="curve" smooth="yes"/>
      <point x="794" y="803"/>
      <point x="792" y="812"/>
      <point x="788" y="820" type="curve" smooth="yes"/>
      <point x="657" y="1033" type="line"/>
      <point x="909" y="1023" type="line"/>
      <point x="951" y="1023"/>
      <point x="973" y="1054"/>
      <point x="973" y="1084" type="curve" smooth="yes"/>
      <point x="973" y="1114"/>
      <point x="951" y="1144"/>
      <point x="909" y="1144" type="curve"/>
      <point x="659" y="1135" type="line"/>
      <point x="790" y="1346" type="line" smooth="yes"/>
      <point x="795" y="1355"/>
      <point x="797" y="1365"/>
      <point x="797" y="1374" type="curve" smooth="yes"/>
      <point x="797" y="1408"/>
      <point x="768" y="1441"/>
      <point x="734" y="1441" type="curve" smooth="yes"/>
      <point x="716" y="1441"/>
      <point x="696" y="1431"/>
      <point x="680" y="1407" type="curve"/>
      <point x="558" y="1184" type="line"/>
      <point x="435" y="1406" type="line" smooth="yes"/>
      <point x="421" y="1430"/>
      <point x="402" y="1440"/>
      <point x="383" y="1440" type="curve" smooth="yes"/>
      <point x="350" y="1440"/>
      <point x="318" y="1410"/>
      <point x="318" y="1376" type="curve" smooth="yes"/>
      <point x="318" y="1367"/>
      <point x="320" y="1356"/>
      <point x="326" y="1347" type="curve" smooth="yes"/>
      <point x="456" y="1135" type="line"/>
      <point x="209" y="1144" type="line"/>
      <point x="167" y="1144"/>
      <point x="146" y="1114"/>
      <point x="146" y="1084" type="curve" smooth="yes"/>
      <point x="146" y="1054"/>
      <point x="167" y="1023"/>
      <point x="209" y="1023" type="curve"/>
      <point x="459" y="1033" type="line"/>
      <point x="328" y="822" type="line" smooth="yes"/>
      <point x="322" y="813"/>
      <point x="320" y="803"/>
      <point x="320" y="794" type="curve" smooth="yes"/>
      <point x="320" y="760"/>
      <point x="353" y="729"/>
      <point x="387" y="729" type="curve" smooth="yes"/>
      <point x="405" y="729"/>
      <point x="424" y="738"/>
    </contour>
  </outline>
</glyph>
<glyph name="slash" format="1">
  <advance width="735"/>
  <unicode hex="002F"/>
  <outline>
    <contour>
      <point x="121" y="-181" type="curve" smooth="yes"/>
      <point x="148" y="-181"/>
      <point x="175" y="-166"/>
      <point x="186" y="-132" type="curve" smooth="yes"/>
      <point x="675" y="1337" type="line" smooth="yes"/>
      <point x="678" y="1348"/>
      <point x="680" y="1358"/>
      <point x="680" y="1364" type="curve" smooth="yes"/>
      <point x="680" y="1404"/>
      <point x="646" y="1427"/>
      <point x="612" y="1427" type="curve" smooth="yes"/>
      <point x="582" y="1427"/>
      <point x="556" y="1412"/>
      <point x="545" y="1378" type="curve" smooth="yes"/>
      <point x="60" y="-92" type="line" smooth="yes"/>
      <point x="57" y="-103"/>
      <point x="55" y="-112"/>
      <point x="55" y="-118" type="curve" smooth="yes"/>
      <point x="55" y="-158"/>
      <point x="88" y="-181"/>
    </contour>
  </outline>
</glyph>
<glyph name="zero" format="1">
  <advance width="1158"/>
  <unicode hex="0030"/>
  <outline>
    <contour>
      <point x="578" y="107" type="curve" smooth="yes"/>
      <point x="296" y="107"/>
      <point x="265" y="458"/>
      <point x="265" y="700" type="curve" smooth="yes"/>
      <point x="265" y="965"/>
      <point x="300" y="1301"/>
      <point x="578" y="1301" type="curve" smooth="yes"/>
      <point x="860" y="1301"/>
      <point x="894" y="962"/>
      <point x="894" y="700" type="curve" smooth="yes"/>
      <point x="894" y="461"/>
      <point x="863" y="107"/>
    </contour>
    <contour>
      <point x="578" y="-22" type="curve" smooth="yes"/>
      <point x="969" y="-22"/>
      <point x="1062" y="325"/>
      <point x="1062" y="700" type="curve" smooth="yes"/>
      <point x="1062" y="1100"/>
      <point x="962" y="1430"/>
      <point x="578" y="1430" type="curve" smooth="yes"/>
      <point x="197" y="1430"/>
      <point x="95" y="1103"/>
      <point x="95" y="700" type="curve" smooth="yes"/>
      <point x="95" y="321"/>
      <point x="189" y="-22"/>
    </contour>
  </outline>
</glyph>
<glyph name="nine" format="1">
  <advance width="1150"/>
  <unicode hex="0039"/>
  <outline>
    <contour>
      <point x="93" y="960" type="curve" smooth="yes"/>
      <point x="93" y="696"/>
      <point x="253" y="506"/>
      <point x="534" y="506" type="curve" smooth="yes"/>
      <point x="735" y="506"/>
      <point x="868" y="643"/>
      <point x="892" y="752" type="curve"/>
      <point x="892" y="384"/>
      <point x="837" y="107"/>
      <point x="499" y="107" type="curve" smooth="yes"/>
      <point x="426" y="107"/>
      <point x="338" y="125"/>
      <point x="248" y="169" type="curve" smooth="yes"/>
      <point x="239" y="174"/>
      <point x="229" y="176"/>
      <point x="221" y="176" type="curve" smooth="yes"/>
      <point x="186" y="176"/>
      <point x="161" y="140"/>
      <point x="161" y="106" type="curve" smooth="yes"/>
      <point x="161" y="85"/>
      <point x="170" y="65"/>
      <point x="192" y="54" type="curve" smooth="yes"/>
      <point x="279" y="10"/>
      <point x="385" y="-22"/>
      <point x="496" y="-22" type="curve" smooth="yes"/>
      <point x="1008" y="-22"/>
      <point x="1057" y="474"/>
      <point x="1057" y="789" type="curve" smooth="yes"/>
      <point x="1057" y="1112"/>
      <point x="953" y="1430"/>
      <point x="554" y="1430" type="curve" smooth="yes"/>
      <point x="267" y="1430"/>
      <point x="93" y="1225"/>
    </contour>
    <contour>
      <point x="543" y="622" type="curve" smooth="yes"/>
      <point x="541" y="622" type="line" smooth="yes"/>
      <point x="339" y="622"/>
      <point x="250" y="782"/>
      <point x="250" y="960" type="curve" smooth="yes"/>
      <point x="250" y="1151"/>
      <point x="354" y="1304"/>
      <point x="564" y="1304" type="curve" smooth="yes"/>
      <point x="781" y="1304"/>
      <point x="877" y="1131"/>
      <point x="877" y="961" type="curve" smooth="yes"/>
      <point x="877" y="764"/>
      <point x="759" y="622"/>
    </contour>
  </outline>
</glyph>
<glyph name="colon" format="1">
  <advance width="578"/>
  <unicode hex="003A"/>
  <outline>
    <contour>
      <point x="289" y="812" type="curve" smooth="yes"/>
      <point x="354" y="812"/>
      <point x="391" y="856"/>
      <point x="391" y="903" type="curve" smooth="yes"/>
      <point x="391" y="949"/>
      <point x="355" y="995"/>
      <point x="289" y="995" type="curve" smooth="yes"/>
      <point x="223" y="995"/>
      <point x="187" y="950"/>
      <point x="187" y="903" type="curve" smooth="yes"/>
      <point x="187" y="856"/>
      <point x="222" y="812"/>
    </contour>
    <contour>
      <point x="289" y="-1" type="curve" smooth="yes"/>
      <point x="355" y="-1"/>
      <point x="391" y="45"/>
      <point x="391" y="92" type="curve" smooth="yes"/>
      <point x="391" y="135"/>
      <point x="355" y="182"/>
      <point x="289" y="182" type="curve" smooth="yes"/>
      <point x="223" y="182"/>
      <point x="187" y="136"/>
      <point x="187" y="92" type="curve" smooth="yes"/>
      <point x="187" y="45"/>
      <point x="222" y="-1"/>
    </contour>
  </outline>
</glyph>
<glyph name="less" format="1">
  <advance width="1345"/>
  <unicode hex="003C"/>
  <outline>
    <contour>
      <point x="1105" y="33" type="line" smooth="yes"/>
      <point x="1162" y="7"/>
      <point x="1198" y="107"/>
      <point x="1150" y="129" type="curve" smooth="yes"/>
      <point x="332" y="494" type="line"/>
      <point x="1147" y="839" type="line" smooth="yes"/>
      <point x="1214" y="868"/>
      <point x="1157" y="959"/>
      <point x="1101" y="934" type="curve" smooth="yes"/>
      <point x="203" y="550" type="line" smooth="yes"/>
      <point x="145" y="525"/>
      <point x="152" y="459"/>
      <point x="205" y="435" type="curve" smooth="yes"/>
    </contour>
  </outline>
</glyph>
<glyph name="question" format="1">
  <advance width="1029"/>
  <unicode hex="003F"/>
  <outline>
    <contour>
      <point x="346" y="435" type="line" smooth="yes"/>
      <point x="345" y="390"/>
      <point x="385" y="367"/>
      <point x="422" y="367" type="curve" smooth="yes"/>
      <point x="457" y="367"/>
      <point x="490" y="387"/>
      <point x="490" y="428" type="curve" smooth="yes"/>
      <point x="489" y="545" type="line"/>
      <point x="490" y="707"/>
      <point x="882" y="800"/>
      <point x="882" y="1088" type="curve" smooth="yes"/>
      <point x="882" y="1339"/>
      <point x="702" y="1434"/>
      <point x="488" y="1434" type="curve" smooth="yes"/>
      <point x="397" y="1434"/>
      <point x="299" y="1417"/>
      <point x="208" y="1394" type="curve" smooth="yes"/>
      <point x="166" y="1384"/>
      <point x="150" y="1354"/>
      <point x="150" y="1324" type="curve" smooth="yes"/>
      <point x="150" y="1291"/>
      <point x="171" y="1255"/>
      <point x="209" y="1255" type="curve" smooth="yes"/>
      <point x="248" y="1255"/>
      <point x="414" y="1294"/>
      <point x="451" y="1294" type="curve" smooth="yes"/>
      <point x="588" y="1294"/>
      <point x="721" y="1262"/>
      <point x="721" y="1078" type="curve" smooth="yes"/>
      <point x="721" y="827"/>
      <point x="357" y="772"/>
      <point x="347" y="573" type="curve"/>
    </contour>
    <contour>
      <point x="424" y="-7" type="curve" smooth="yes"/>
      <point x="490" y="-7"/>
      <point x="526" y="39"/>
      <point x="526" y="86" type="curve" smooth="yes"/>
      <point x="526" y="131"/>
      <point x="491" y="176"/>
      <point x="424" y="176" type="curve" smooth="yes"/>
      <point x="357" y="176"/>
      <point x="322" y="132"/>
      <point x="322" y="86" type="curve" smooth="yes"/>
      <point x="322" y="39"/>
      <point x="357" y="-7"/>
    </contour>
  </outline>
</glyph>
<glyph name="at" format="1">
  <advance width="1638"/>
  <unicode hex="0040"/>
  <outline>
    <contour>
      <point x="807" y="-25" type="curve" smooth="yes"/>
      <point x="911" y="-25"/>
      <point x="1019" y="-7"/>
      <point x="1131" y="27" type="curve" smooth="yes"/>
      <point x="1154" y="34"/>
      <point x="1164" y="54"/>
      <point x="1164" y="74" type="curve" smooth="yes"/>
      <point x="1164" y="101"/>
      <point x="1148" y="124"/>
      <point x="1114" y="124" type="curve" smooth="yes"/>
      <point x="1105" y="124"/>
      <point x="1096" y="123"/>
      <point x="1088" y="120" type="curve" smooth="yes"/>
      <point x="999" y="93"/>
      <point x="910" y="79"/>
      <point x="825" y="79" type="curve" smooth="yes"/>
      <point x="482" y="79"/>
      <point x="190" y="298"/>
      <point x="190" y="729" type="curve" smooth="yes"/>
      <point x="190" y="1157"/>
      <point x="560" y="1402"/>
      <point x="894" y="1402" type="curve" smooth="yes"/>
      <point x="1170" y="1402"/>
      <point x="1418" y="1237"/>
      <point x="1418" y="871" type="curve" smooth="yes"/>
      <point x="1418" y="652"/>
      <point x="1284" y="426"/>
      <point x="1123" y="426" type="curve" smooth="yes"/>
      <point x="1078" y="426"/>
      <point x="1066" y="445"/>
      <point x="1066" y="477" type="curve" smooth="yes"/>
      <point x="1066" y="505"/>
      <point x="1076" y="542"/>
      <point x="1090" y="585" type="curve" smooth="yes"/>
      <point x="1241" y="1065" type="line"/>
      <point x="1245" y="1073"/>
      <point x="1246" y="1081"/>
      <point x="1246" y="1090" type="curve" smooth="yes"/>
      <point x="1246" y="1125"/>
      <point x="1216" y="1144"/>
      <point x="1185" y="1144" type="curve" smooth="yes"/>
      <point x="1155" y="1144"/>
      <point x="1120" y="1127"/>
      <point x="1111" y="1093" type="curve" smooth="yes"/>
      <point x="1102" y="1062" type="line"/>
      <point x="1061" y="1149"/>
      <point x="967" y="1195"/>
      <point x="872" y="1195" type="curve" smooth="yes"/>
      <point x="574" y="1195"/>
      <point x="390" y="894"/>
      <point x="390" y="622" type="curve" smooth="yes"/>
      <point x="390" y="452"/>
      <point x="496" y="314"/>
      <point x="675" y="314" type="curve" smooth="yes"/>
      <point x="758" y="314"/>
      <point x="856" y="349"/>
      <point x="919" y="409" type="curve"/>
      <point x="947" y="341"/>
      <point x="1021" y="310"/>
      <point x="1093" y="310" type="curve" smooth="yes"/>
      <point x="1306" y="310"/>
      <point x="1547" y="548"/>
      <point x="1547" y="870" type="curve" smooth="yes"/>
      <point x="1547" y="1310"/>
      <point x="1230" y="1512"/>
      <point x="891" y="1512" type="curve" smooth="yes"/>
      <point x="491" y="1512"/>
      <point x="59" y="1235"/>
      <point x="59" y="742" type="curve" smooth="yes"/>
      <point x="59" y="261"/>
      <point x="381" y="-25"/>
    </contour>
    <contour>
      <point x="702" y="431" type="curve" smooth="yes"/>
      <point x="600" y="431"/>
      <point x="538" y="516"/>
      <point x="538" y="622" type="curve" smooth="yes"/>
      <point x="538" y="834"/>
      <point x="678" y="1072"/>
      <point x="880" y="1072" type="curve" smooth="yes"/>
      <point x="992" y="1072"/>
      <point x="1061" y="930"/>
      <point x="1061" y="930" type="curve"/>
      <point x="972" y="627" type="line" smooth="yes"/>
      <point x="936" y="505"/>
      <point x="798" y="431"/>
    </contour>
  </outline>
</glyph>
<glyph name="D" format="1">
  <advance width="1493"/>
  <unicode hex="0044"/>
  <outline>
    <contour>
      <point x="298" y="708" type="move" name="mid"/>
    </contour>
    <contour>
      <point x="260" y="0" type="curve" smooth="yes"/>
      <point x="600" y="0" type="line" smooth="yes"/>
      <point x="1083" y="0"/>
      <point x="1361" y="242"/>
      <point x="1361" y="709" type="curve" smooth="yes"/>
      <point x="1361" y="1178"/>
      <point x="1091" y="1424"/>
      <point x="599" y="1424" type="curve" smooth="yes"/>
      <point x="260" y="1424" type="line" smooth="yes"/>
      <point x="215" y="1424"/>
      <point x="179" y="1388"/>
      <point x="179" y="1346" type="curve" smooth="yes"/>
      <point x="179" y="78" type="line" smooth="yes"/>
      <point x="179" y="35"/>
      <point x="215" y="0"/>
    </contour>
    <contour>
      <point x="341" y="128" type="line"/>
      <point x="341" y="1295" type="line"/>
      <point x="568" y="1295" type="line" smooth="yes"/>
      <point x="989" y="1295"/>
      <point x="1192" y="1136"/>
      <point x="1192" y="711" type="curve" smooth="yes"/>
      <point x="1192" y="334"/>
      <point x="1039" y="128"/>
      <point x="605" y="128" type="curve" smooth="yes"/>
    </contour>
  </outline>
</glyph>
<glyph name="E" format="1">
  <advance width="1230"/>
  <unicode hex="0045"/>
  <outline>
    <contour>
      <point x="641" y="1438" type="move" name="top"/>
    </contour>
    <contour>
      <point x="810" y="9" type="move" name="ogonek"/>
    </contour>
    <contour>
      <point x="645" y="0" type="move" name="bot"/>
    </contour>
    <contour>
      <point x="259" y="0" type="curve" smooth="yes"/>
      <point x="1032" y="0" type="line" smooth="yes"/>
      <point x="1078" y="0"/>
      <point x="1101" y="30"/>
      <point x="1101" y="65" type="curve" smooth="yes"/>
      <point x="1101" y="99"/>
      <point x="1078" y="128"/>
      <point x="1032" y="128" type="curve" smooth="yes"/>
      <point x="341" y="128" type="line"/>
      <point x="341" y="671" type="line"/>
      <point x="972" y="671" type="line" smooth="yes"/>
      <point x="1018" y="671"/>
      <point x="1042" y="700"/>
      <point x="1042" y="734" type="curve" smooth="yes"/>
      <point x="1042" y="767"/>
      <point x="1020" y="797"/>
      <point x="972" y="797" type="curve" smooth="yes"/>
      <point x="341" y="797" type="line"/>
      <point x="341" y="1296" type="line"/>
      <point x="1003" y="1296" type="line" smooth="yes"/>
      <point x="1049" y="1296"/>
      <point x="1072" y="1325"/>
      <point x="1072" y="1360" type="curve" smooth="yes"/>
      <point x="1072" y="1394"/>
      <point x="1049" y="1424"/>
      <point x="1003" y="1424" type="curve" smooth="yes"/>
      <point x="254" y="1424" type="line" smooth="yes"/>
      <point x="210" y="1424"/>
      <point x="179" y="1384"/>
      <point x="179" y="1346" type="curve" smooth="yes"/>
      <point x="179" y="78" type="line" smooth="yes"/>
      <point x="179" y="38"/>
      <point x="219" y="0"/>
    </contour>
  </outline>
</glyph>
<glyph name="I" format="1">
  <advance width="584"/>
  <unicode hex="0049"/>
  <outline>
    <contour>
      <point x="288" y="23" type="move" name="ogonek"/>
    </contour>
    <contour>
      <point x="292" y="0" type="curve" smooth="yes"/>
      <point x="333" y="0"/>
      <point x="374" y="24"/>
      <point x="374" y="76" type="curve" smooth="yes"/>
      <point x="374" y="1346" type="line" smooth="yes"/>
      <point x="374" y="1398"/>
      <point x="334" y="1423"/>
      <point x="294" y="1423" type="curve" smooth="yes"/>
      <point x="253" y="1423"/>
      <point x="212" y="1397"/>
      <point x="212" y="1346" type="curve" smooth="yes"/>
      <point x="212" y="76" type="line" smooth="yes"/>
      <point x="212" y="25"/>
      <point x="252" y="0"/>
    </contour>
  </outline>
</glyph>
<glyph name="K" format="1">
  <advance width="1226"/>
  <unicode hex="004B"/>
  <outline>
    <contour>
      <point x="637" y="1438" type="move" name="top"/>
    </contour>
    <contour>
      <point x="641" y="0" type="move" name="bot"/>
    </contour>
    <contour>
      <point x="256" y="0" type="curve" smooth="yes"/>
      <point x="296" y="0"/>
      <point x="337" y="24"/>
      <point x="337" y="75" type="curve" smooth="yes"/>
      <point x="337" y="709" type="line"/>
      <point x="1021" y="31" type="line" smooth="yes"/>
      <point x="1041" y="12"/>
      <point x="1062" y="0"/>
      <point x="1084" y="0" type="curve" smooth="yes"/>
      <point x="1127" y="0"/>
      <point x="1160" y="29"/>
      <point x="1160" y="71" type="curve" smooth="yes"/>
      <point x="1160" y="88"/>
      <point x="1155" y="107"/>
      <point x="1138" y="123" type="curve" smooth="yes"/>
      <point x="503" y="738" type="line"/>
      <point x="1085" y="1311" type="line" smooth="yes"/>
      <point x="1099" y="1325"/>
      <point x="1104" y="1343"/>
      <point x="1104" y="1359" type="curve" smooth="yes"/>
      <point x="1104" y="1396"/>
      <point x="1076" y="1424"/>
      <point x="1036" y="1424" type="curve" smooth="yes"/>
      <point x="1016" y="1424"/>
      <point x="997" y="1416"/>
      <point x="978" y="1398" type="curve" smooth="yes"/>
      <point x="337" y="752" type="line"/>
      <point x="337" y="1348" type="line" smooth="yes"/>
      <point x="337" y="1397"/>
      <point x="297" y="1424"/>
      <point x="258" y="1424" type="curve" smooth="yes"/>
      <point x="218" y="1424"/>
      <point x="179" y="1398"/>
      <point x="179" y="1348" type="curve" smooth="yes"/>
      <point x="179" y="75" type="line" smooth="yes"/>
      <point x="179" y="24"/>
      <point x="218" y="0"/>
    </contour>
  </outline>
</glyph>
<glyph name="M" format="1">
  <advance width="1895"/>
  <unicode hex="004D"/>
  <outline>
    <contour>
      <point x="949" y="30" type="curve" smooth="yes"/>
      <point x="986" y="30"/>
      <point x="1025" y="54"/>
      <point x="1048" y="103" type="curve" smooth="yes"/>
      <point x="1568" y="1235" type="line"/>
      <point x="1568" y="62" type="line" smooth="yes"/>
      <point x="1568" y="21"/>
      <point x="1605" y="1"/>
      <point x="1642" y="1" type="curve" smooth="yes"/>
      <point x="1679" y="1"/>
      <point x="1716" y="21"/>
      <point x="1716" y="62" type="curve" smooth="yes"/>
      <point x="1716" y="1305" type="line" smooth="yes"/>
      <point x="1716" y="1371"/>
      <point x="1658" y="1423"/>
      <point x="1594" y="1423" type="curve" smooth="yes"/>
      <point x="1546" y="1423"/>
      <point x="1495" y="1395"/>
      <point x="1461" y="1322" type="curve" smooth="yes"/>
      <point x="949" y="214" type="line"/>
      <point x="438" y="1322" type="line" smooth="yes"/>
      <point x="404" y="1395"/>
      <point x="352" y="1423"/>
      <point x="304" y="1423" type="curve" smooth="yes"/>
      <point x="240" y="1423"/>
      <point x="182" y="1371"/>
      <point x="182" y="1305" type="curve" smooth="yes"/>
      <point x="182" y="62" type="line" smooth="yes"/>
      <point x="182" y="21"/>
      <point x="219" y="1"/>
      <point x="256" y="1" type="curve" smooth="yes"/>
      <point x="293" y="1"/>
      <point x="331" y="21"/>
      <point x="331" y="62" type="curve" smooth="yes"/>
      <point x="331" y="1235" type="line"/>
      <point x="851" y="103" type="line" smooth="yes"/>
      <point x="873" y="54"/>
      <point x="913" y="30"/>
    </contour>
  </outline>
</glyph>
<glyph name="O" format="1">
  <advance width="1596"/>
  <unicode hex="004F"/>
  <outline>
    <contour>
      <point x="798" y="107" type="curve" smooth="yes"/>
      <point x="497" y="107"/>
      <point x="306" y="330"/>
      <point x="306" y="704" type="curve" smooth="yes"/>
      <point x="306" y="1079"/>
      <point x="497" y="1301"/>
      <point x="798" y="1301" type="curve" smooth="yes"/>
      <point x="1100" y="1301"/>
      <point x="1290" y="1079"/>
      <point x="1290" y="704" type="curve" smooth="yes"/>
      <point x="1290" y="330"/>
      <point x="1100" y="107"/>
    </contour>
    <contour>
      <point x="798" y="-22" type="curve" smooth="yes"/>
      <point x="1202" y="-22"/>
      <point x="1461" y="256"/>
      <point x="1461" y="704" type="curve" smooth="yes"/>
      <point x="1461" y="1152"/>
      <point x="1202" y="1430"/>
      <point x="798" y="1430" type="curve" smooth="yes"/>
      <point x="393" y="1430"/>
      <point x="135" y="1152"/>
      <point x="135" y="704" type="curve" smooth="yes"/>
      <point x="135" y="256"/>
      <point x="393" y="-22"/>
    </contour>
  </outline>
</glyph>
<glyph name="Q" format="1">
  <advance width="1596"/>
  <unicode hex="0051"/>
  <outline>
    <component base="O"/>
    <contour>
      <point x="1345" y="-234" type="curve" smooth="yes"/>
      <point x="1379" y="-234"/>
      <point x="1409" y="-207"/>
      <point x="1409" y="-168" type="curve" smooth="yes"/>
      <point x="1409" y="-144"/>
      <point x="1397" y="-119"/>
      <point x="1369" y="-107" type="curve" smooth="yes"/>
      <point x="989" y="56" type="line"/>
      <point x="730" y="27" type="line"/>
      <point x="1315" y="-228" type="line" smooth="yes"/>
      <point x="1325" y="-232"/>
      <point x="1336" y="-234"/>
    </contour>
  </outline>
</glyph>
<glyph name="S" format="1">
  <advance width="1266"/>
  <unicode hex="0053"/>
  <outline>
    <contour>
      <point x="642" y="1438" type="move" name="top"/>
    </contour>
    <contour>
      <point x="634" y="11" type="move" name="bot"/>
    </contour>
    <contour>
      <point x="625" y="-22" type="curve" smooth="yes"/>
      <point x="930" y="-22"/>
      <point x="1129" y="112"/>
      <point x="1142" y="352" type="curve" smooth="yes"/>
      <point x="1155" y="591"/>
      <point x="1009" y="681"/>
      <point x="801" y="750" type="curve" smooth="yes"/>
      <point x="539" y="836" type="line" smooth="yes"/>
      <point x="384" y="886"/>
      <point x="304" y="943"/>
      <point x="304" y="1066" type="curve" smooth="yes"/>
      <point x="304" y="1206"/>
      <point x="435" y="1301"/>
      <point x="648" y="1301" type="curve" smooth="yes"/>
      <point x="818" y="1301"/>
      <point x="955" y="1219"/>
      <point x="1002" y="1184" type="curve" smooth="yes"/>
      <point x="1064" y="1137"/>
      <point x="1143" y="1220"/>
      <point x="1086" y="1274" type="curve" smooth="yes"/>
      <point x="1012" y="1345"/>
      <point x="833" y="1430"/>
      <point x="635" y="1430" type="curve" smooth="yes"/>
      <point x="363" y="1430"/>
      <point x="148" y="1289"/>
      <point x="148" y="1062" type="curve" smooth="yes"/>
      <point x="148" y="862"/>
      <point x="276" y="773"/>
      <point x="462" y="711" type="curve" smooth="yes"/>
      <point x="722" y="623" type="line" smooth="yes"/>
      <point x="902" y="564"/>
      <point x="986" y="516"/>
      <point x="986" y="354" type="curve" smooth="yes"/>
      <point x="986" y="190"/>
      <point x="831" y="107"/>
      <point x="638" y="107" type="curve" smooth="yes"/>
      <point x="465" y="107"/>
      <point x="330" y="178"/>
      <point x="253" y="244" type="curve" smooth="yes"/>
      <point x="212" y="280"/>
      <point x="116" y="195"/>
      <point x="158" y="155" type="curve" smooth="yes"/>
      <point x="261" y="55"/>
      <point x="415" y="-22"/>
    </contour>
  </outline>
</glyph>
<glyph name="V" format="1">
  <advance width="1275"/>
  <unicode hex="0056"/>
  <outline>
    <contour>
      <point x="645" y="-3" type="curve" smooth="yes"/>
      <point x="699" y="-3"/>
      <point x="750" y="37"/>
      <point x="777" y="107" type="curve" smooth="yes"/>
      <point x="1243" y="1322" type="line" smooth="yes"/>
      <point x="1277" y="1409"/>
      <point x="1132" y="1469"/>
      <point x="1095" y="1371" type="curve" smooth="yes"/>
      <point x="645" y="179" type="line"/>
      <point x="194" y="1371" type="line" smooth="yes"/>
      <point x="157" y="1469"/>
      <point x="12" y="1409"/>
      <point x="46" y="1322" type="curve" smooth="yes"/>
      <point x="512" y="107" type="line" smooth="yes"/>
      <point x="540" y="37"/>
      <point x="590" y="-3"/>
    </contour>
  </outline>
</glyph>
<glyph name="Z" format="1">
  <advance width="1159"/>
  <unicode hex="005A"/>
  <outline>
    <contour>
      <point x="208" y="0" type="curve" smooth="yes"/>
      <point x="1026" y="0" type="line" smooth="yes"/>
      <point x="1072" y="0"/>
      <point x="1096" y="30"/>
      <point x="1096" y="65" type="curve" smooth="yes"/>
      <point x="1096" y="98"/>
      <point x="1072" y="128"/>
      <point x="1026" y="128" type="curve" smooth="yes"/>
      <point x="281" y="128" type="line"/>
      <point x="1082" y="1277" type="line" smooth="yes"/>
      <point x="1098" y="1300"/>
      <point x="1105" y="1325"/>
      <point x="1105" y="1345" type="curve" smooth="yes"/>
      <point x="1105" y="1391"/>
      <point x="1072" y="1424"/>
      <point x="1018" y="1424" type="curve" smooth="yes"/>
      <point x="179" y="1424" type="line" smooth="yes"/>
      <point x="133" y="1424"/>
      <point x="111" y="1394"/>
      <point x="111" y="1360" type="curve" smooth="yes"/>
      <point x="111" y="1325"/>
      <point x="134" y="1296"/>
      <point x="179" y="1296" type="curve" smooth="yes"/>
      <point x="925" y="1296" type="line"/>
      <point x="123" y="147" type="line" smooth="yes"/>
      <point x="110" y="129"/>
      <point x="104" y="109"/>
      <point x="104" y="87" type="curve" smooth="yes"/>
      <point x="104" y="43"/>
      <point x="134" y="0"/>
    </contour>
  </outline>
</glyph>
<glyph name="bracketleft" format="1">
  <advance width="596"/>
  <unicode hex="005B"/>
  <outline>
    <contour>
      <point x="250" y="-196" type="curve" smooth="yes"/>
      <point x="426" y="-196" type="line"/>
      <point x="428" y="-196" type="line" smooth="yes"/>
      <point x="465" y="-196"/>
      <point x="485" y="-166"/>
      <point x="485" y="-138" type="curve" smooth="yes"/>
      <point x="485" y="-109"/>
      <point x="466" y="-81"/>
      <point x="426" y="-81" type="curve" smooth="yes"/>
      <point x="326" y="-81" type="line"/>
      <point x="326" y="1309" type="line"/>
      <point x="426" y="1309" type="line" smooth="yes"/>
      <point x="464" y="1309"/>
      <point x="483" y="1338"/>
      <point x="483" y="1367" type="curve" smooth="yes"/>
      <point x="483" y="1396"/>
      <point x="466" y="1424"/>
      <point x="426" y="1424" type="curve" smooth="yes"/>
      <point x="250" y="1424" type="line" smooth="yes"/>
      <point x="206" y="1424"/>
      <point x="173" y="1391"/>
      <point x="173" y="1349" type="curve" smooth="yes"/>
      <point x="173" y="-122" type="line" smooth="yes"/>
      <point x="173" y="-163"/>
      <point x="206" y="-196"/>
    </contour>
  </outline>
</glyph>
<glyph name="backslash" format="1">
  <advance width="581"/>
  <unicode hex="005C"/>
  <outline>
    <contour>
      <point x="537" y="-109" type="curve" smooth="yes"/>
      <point x="571" y="-109"/>
      <point x="602" y="-86"/>
      <point x="602" y="-47" type="curve" smooth="yes"/>
      <point x="602" y="-38"/>
      <point x="601" y="-29"/>
      <point x="598" y="-20" type="curve" smooth="yes"/>
      <point x="113" y="1450" type="line" smooth="yes"/>
      <point x="102" y="1484"/>
      <point x="73" y="1498"/>
      <point x="47" y="1498" type="curve" smooth="yes"/>
      <point x="12" y="1498"/>
      <point x="-22" y="1475"/>
      <point x="-22" y="1436" type="curve" smooth="yes"/>
      <point x="-22" y="1430"/>
      <point x="-20" y="1421"/>
      <point x="-17" y="1410" type="curve" smooth="yes"/>
      <point x="472" y="-61" type="line" smooth="yes"/>
      <point x="483" y="-94"/>
      <point x="509" y="-109"/>
    </contour>
  </outline>
</glyph>
<glyph name="c" format="1">
  <advance width="954"/>
  <unicode hex="0063"/>
  <outline>
    <contour>
      <point x="545" y="-24" type="curve" smooth="yes"/>
      <point x="676" y="-24"/>
      <point x="783" y="12"/>
      <point x="848" y="63" type="curve" smooth="yes"/>
      <point x="871" y="81"/>
      <point x="880" y="100"/>
      <point x="880" y="116" type="curve" smooth="yes"/>
      <point x="880" y="141"/>
      <point x="858" y="160"/>
      <point x="832" y="160" type="curve" smooth="yes"/>
      <point x="822" y="160"/>
      <point x="811" y="157"/>
      <point x="800" y="150" type="curve" smooth="yes"/>
      <point x="725" y="99"/>
      <point x="642" y="80"/>
      <point x="556" y="80" type="curve" smooth="yes"/>
      <point x="313" y="80"/>
      <point x="234" y="307"/>
      <point x="234" y="489" type="curve" smooth="yes"/>
      <point x="234" y="763"/>
      <point x="387" y="913"/>
      <point x="579" y="913" type="curve" smooth="yes"/>
      <point x="652" y="913"/>
      <point x="728" y="892"/>
      <point x="794" y="845" type="curve" smooth="yes"/>
      <point x="807" y="835"/>
      <point x="822" y="831"/>
      <point x="834" y="831" type="curve" smooth="yes"/>
      <point x="859" y="831"/>
      <point x="878" y="848"/>
      <point x="878" y="872" type="curve" smooth="yes"/>
      <point x="878" y="887"/>
      <point x="870" y="905"/>
      <point x="851" y="922" type="curve" smooth="yes"/>
      <point x="794" y="975"/>
      <point x="689" y="1013"/>
      <point x="578" y="1013" type="curve" smooth="yes"/>
      <point x="277" y="1013"/>
      <point x="87" y="791"/>
      <point x="87" y="495" type="curve" smooth="yes"/>
      <point x="87" y="200"/>
      <point x="253" y="-24"/>
    </contour>
  </outline>
</glyph>
<glyph name="d" format="1">
  <advance width="1175"/>
  <unicode hex="0064"/>
  <outline>
    <contour>
      <point x="902" y="982" type="move" name="caron.alt"/>
    </contour>
    <contour>
      <point x="884" y="1199" type="move" name="mid"/>
    </contour>
    <contour>
      <point x="530" y="80" type="curve" smooth="yes"/>
      <point x="302" y="83"/>
      <point x="234" y="309"/>
      <point x="234" y="494" type="curve" smooth="yes"/>
      <point x="234" y="688"/>
      <point x="313" y="912"/>
      <point x="545" y="912" type="curve" smooth="yes"/>
      <point x="775" y="912"/>
      <point x="866" y="705"/>
      <point x="866" y="501" type="curve" smooth="yes"/>
      <point x="866" y="279"/>
      <point x="788" y="80"/>
    </contour>
    <contour>
      <point x="515" y="-21" type="curve" smooth="yes"/>
      <point x="666" y="-21"/>
      <point x="801" y="47"/>
      <point x="867" y="188" type="curve"/>
      <point x="867" y="69" type="line" smooth="yes"/>
      <point x="867" y="39"/>
      <point x="882" y="4"/>
      <point x="941" y="4" type="curve" smooth="yes"/>
      <point x="978" y="4"/>
      <point x="1013" y="25"/>
      <point x="1013" y="69" type="curve" smooth="yes"/>
      <point x="1013" y="1355" type="line" smooth="yes"/>
      <point x="1013" y="1400"/>
      <point x="977" y="1423"/>
      <point x="940" y="1423" type="curve" smooth="yes"/>
      <point x="903" y="1423"/>
      <point x="867" y="1400"/>
      <point x="867" y="1355" type="curve" smooth="yes"/>
      <point x="867" y="806" type="line"/>
      <point x="810" y="938"/>
      <point x="679" y="1013"/>
      <point x="532" y="1013" type="curve" smooth="yes"/>
      <point x="240" y="1013"/>
      <point x="87" y="771"/>
      <point x="87" y="501" type="curve" smooth="yes"/>
      <point x="87" y="224"/>
      <point x="222" y="-21"/>
    </contour>
  </outline>
</glyph>
<glyph name="e" format="1">
  <advance width="1140"/>
  <unicode hex="0065"/>
  <outline>
    <contour>
      <point x="585" y="1001" type="move" name="top"/>
    </contour>
    <contour>
      <point x="735" y="22" type="move" name="ogonek"/>
    </contour>
    <contour>
      <point x="249" y="565" type="line"/>
      <point x="262" y="744"/>
      <point x="373" y="912"/>
      <point x="585" y="912" type="curve" smooth="yes"/>
      <point x="790" y="912"/>
      <point x="879" y="756"/>
      <point x="890" y="565" type="curve"/>
    </contour>
    <contour>
      <point x="578" y="-21" type="curve" smooth="yes"/>
      <point x="785" y="-21"/>
      <point x="897" y="61"/>
      <point x="970" y="130" type="curve" smooth="yes"/>
      <point x="1028" y="186"/>
      <point x="969" y="261"/>
      <point x="910" y="213" type="curve" smooth="yes"/>
      <point x="830" y="148"/>
      <point x="737" y="85"/>
      <point x="585" y="85" type="curve" smooth="yes"/>
      <point x="404" y="89"/>
      <point x="242" y="213"/>
      <point x="244" y="472" type="curve"/>
      <point x="956" y="472" type="line" smooth="yes"/>
      <point x="1000" y="472"/>
      <point x="1020" y="497"/>
      <point x="1020" y="525" type="curve" smooth="yes"/>
      <point x="1012" y="784"/>
      <point x="900" y="1013"/>
      <point x="573" y="1013" type="curve" smooth="yes"/>
      <point x="271" y="1013"/>
      <point x="97" y="770"/>
      <point x="97" y="493" type="curve" smooth="yes"/>
      <point x="97" y="172"/>
      <point x="314" y="-22"/>
    </contour>
  </outline>
</glyph>
<glyph name="i" format="1">
  <advance width="489"/>
  <unicode hex="0069"/>
  <outline>
    <contour>
      <point x="250" y="0" type="curve" smooth="yes"/>
      <point x="287" y="0"/>
      <point x="326" y="26"/>
      <point x="326" y="75" type="curve" smooth="yes"/>
      <point x="326" y="916" type="line" smooth="yes"/>
      <point x="326" y="965"/>
      <point x="289" y="989"/>
      <point x="254" y="989" type="curve" smooth="yes"/>
      <point x="217" y="989"/>
      <point x="179" y="965"/>
      <point x="179" y="916" type="curve" smooth="yes"/>
      <point x="179" y="75" type="line" smooth="yes"/>
      <point x="179" y="23"/>
      <point x="214" y="0"/>
    </contour>
    <contour>
      <point x="251" y="1240" type="curve" smooth="yes"/>
      <point x="313" y="1240"/>
      <point x="355" y="1279"/>
      <point x="355" y="1337" type="curve" smooth="yes"/>
      <point x="355" y="1394"/>
      <point x="314" y="1433"/>
      <point x="252" y="1433" type="curve" smooth="yes"/>
      <point x="191" y="1433"/>
      <point x="149" y="1394"/>
      <point x="149" y="1337" type="curve" smooth="yes"/>
      <point x="149" y="1279"/>
      <point x="190" y="1240"/>
    </contour>
  </outline>
</glyph>
<glyph name="n" format="1">
  <advance width="1146"/>
  <unicode hex="006E"/>
  <outline>
    <contour>
      <point x="234" y="0" type="curve" smooth="yes"/>
      <point x="271" y="0"/>
      <point x="309" y="24"/>
      <point x="309" y="68" type="curve" smooth="yes"/>
      <point x="309" y="607" type="line"/>
      <point x="324" y="805"/>
      <point x="444" y="912"/>
      <point x="605" y="912" type="curve" smooth="yes"/>
      <point x="771" y="912"/>
      <point x="850" y="810"/>
      <point x="850" y="625" type="curve" smooth="yes"/>
      <point x="850" y="68" type="line" smooth="yes"/>
      <point x="850" y="21"/>
      <point x="887" y="0"/>
      <point x="924" y="0" type="curve" smooth="yes"/>
      <point x="960" y="0"/>
      <point x="997" y="21"/>
      <point x="997" y="68" type="curve" smooth="yes"/>
      <point x="997" y="623" type="line" smooth="yes"/>
      <point x="997" y="897"/>
      <point x="859" y="1013"/>
      <point x="636" y="1013" type="curve" smooth="yes"/>
      <point x="488" y="1013"/>
      <point x="355" y="942"/>
      <point x="309" y="808" type="curve"/>
      <point x="309" y="921" type="line" smooth="yes"/>
      <point x="309" y="966"/>
      <point x="272" y="988"/>
      <point x="236" y="988" type="curve" smooth="yes"/>
      <point x="200" y="988"/>
      <point x="162" y="966"/>
      <point x="162" y="919" type="curve" smooth="yes"/>
      <point x="162" y="68" type="line" smooth="yes"/>
      <point x="162" y="21"/>
      <point x="198" y="0"/>
    </contour>
  </outline>
</glyph>
<glyph name="o" format="1">
  <advance width="1135"/>
  <unicode hex="006F"/>
  <outline>
    <contour>
      <point x="568" y="1003" type="move" name="top"/>
    </contour>
    <contour>
      <point x="577" y="-21" type="curve" smooth="yes"/>
      <point x="862" y="-21"/>
      <point x="1068" y="174"/>
      <point x="1068" y="495" type="curve" smooth="yes"/>
      <point x="1068" y="814"/>
      <point x="864" y="1013"/>
      <point x="577" y="1013" type="curve" smooth="yes"/>
      <point x="292" y="1013"/>
      <point x="87" y="815"/>
      <point x="87" y="495" type="curve" smooth="yes"/>
      <point x="87" y="174"/>
      <point x="293" y="-21"/>
    </contour>
    <contour>
      <point x="577" y="80" type="curve" smooth="yes"/>
      <point x="361" y="79"/>
      <point x="234" y="248"/>
      <point x="234" y="495" type="curve" smooth="yes"/>
      <point x="234" y="746"/>
      <point x="362" y="912"/>
      <point x="577" y="912" type="curve" smooth="yes"/>
      <point x="794" y="912"/>
      <point x="921" y="743"/>
      <point x="921" y="495" type="curve" smooth="yes"/>
      <point x="921" y="248"/>
      <point x="799" y="81"/>
    </contour>
  </outline>
</glyph>
<glyph name="q" format="1">
  <advance width="1175"/>
  <unicode hex="0071"/>
  <outline>
    <contour>
      <point x="940" y="-378" type="curve" smooth="yes"/>
      <point x="977" y="-378"/>
      <point x="1013" y="-356"/>
      <point x="1013" y="-311" type="curve" smooth="yes"/>
      <point x="1013" y="922" type="line" smooth="yes"/>
      <point x="1013" y="967"/>
      <point x="978" y="988"/>
      <point x="941" y="988" type="curve" smooth="yes"/>
      <point x="882" y="988"/>
      <point x="867" y="952"/>
      <point x="867" y="922" type="curve" smooth="yes"/>
      <point x="867" y="804" type="line"/>
      <point x="801" y="944"/>
      <point x="666" y="1013"/>
      <point x="515" y="1013" type="curve" smooth="yes"/>
      <point x="222" y="1013"/>
      <point x="87" y="768"/>
      <point x="87" y="490" type="curve" smooth="yes"/>
      <point x="87" y="221"/>
      <point x="240" y="-21"/>
      <point x="532" y="-21" type="curve" smooth="yes"/>
      <point x="679" y="-21"/>
      <point x="810" y="53"/>
      <point x="867" y="185" type="curve"/>
      <point x="867" y="-311" type="line" smooth="yes"/>
      <point x="867" y="-356"/>
      <point x="903" y="-378"/>
    </contour>
    <contour>
      <point x="545" y="80" type="curve" smooth="yes"/>
      <point x="313" y="80"/>
      <point x="234" y="304"/>
      <point x="234" y="498" type="curve" smooth="yes"/>
      <point x="234" y="683"/>
      <point x="302" y="908"/>
      <point x="530" y="912" type="curve"/>
      <point x="788" y="912"/>
      <point x="866" y="712"/>
      <point x="866" y="491" type="curve" smooth="yes"/>
      <point x="866" y="287"/>
      <point x="775" y="80"/>
    </contour>
  </outline>
</glyph>
<glyph name="x" format="1">
  <advance width="1035"/>
  <unicode hex="0078"/>
  <outline>
    <contour>
      <point x="873" y="0" type="curve" smooth="yes"/>
      <point x="914" y="0"/>
      <point x="943" y="35"/>
      <point x="943" y="72" type="curve" smooth="yes"/>
      <point x="943" y="86"/>
      <point x="938" y="98"/>
      <point x="928" y="112" type="curve" smooth="yes"/>
      <point x="610" y="512" type="line"/>
      <point x="908" y="891" type="line" smooth="yes"/>
      <point x="917" y="903"/>
      <point x="922" y="915"/>
      <point x="922" y="928" type="curve" smooth="yes"/>
      <point x="922" y="961"/>
      <point x="889" y="989"/>
      <point x="855" y="989" type="curve" smooth="yes"/>
      <point x="837" y="989"/>
      <point x="818" y="981"/>
      <point x="804" y="962" type="curve" smooth="yes"/>
      <point x="530" y="613" type="line"/>
      <point x="256" y="958" type="line" smooth="yes"/>
      <point x="238" y="980"/>
      <point x="217" y="989"/>
      <point x="196" y="989" type="curve" smooth="yes"/>
      <point x="155" y="989"/>
      <point x="127" y="956"/>
      <point x="127" y="917" type="curve" smooth="yes"/>
      <point x="127" y="903"/>
      <point x="130" y="890"/>
      <point x="142" y="876" type="curve" smooth="yes"/>
      <point x="435" y="508" type="line"/>
      <point x="105" y="99" type="line" smooth="yes"/>
      <point x="97" y="89"/>
      <point x="93" y="77"/>
      <point x="93" y="65" type="curve" smooth="yes"/>
      <point x="93" y="31"/>
      <point x="126" y="0"/>
      <point x="163" y="0" type="curve" smooth="yes"/>
      <point x="183" y="0"/>
      <point x="199" y="9"/>
      <point x="212" y="26" type="curve" smooth="yes"/>
      <point x="513" y="410" type="line"/>
      <point x="814" y="32" type="line"/>
      <point x="831" y="9"/>
      <point x="852" y="0"/>
    </contour>
  </outline>
</glyph>
<glyph name="y" format="1">
  <advance width="1021"/>
  <unicode hex="0079"/>
  <outline>
    <contour>
      <point x="445" y="-329" type="curve" smooth="yes"/>
      <point x="1005" y="895" type="line" smooth="yes"/>
      <point x="1008" y="903"/>
      <point x="1009" y="910"/>
      <point x="1009" y="918" type="curve" smooth="yes"/>
      <point x="1009" y="957"/>
      <point x="973" y="988"/>
      <point x="936" y="988" type="curve" smooth="yes"/>
      <point x="912" y="988"/>
      <point x="887" y="974"/>
      <point x="872" y="942" type="curve" smooth="yes"/>
      <point x="549" y="234" type="line"/>
      <point x="222" y="947" type="line" smooth="yes"/>
      <point x="208" y="978"/>
      <point x="183" y="991"/>
      <point x="159" y="991" type="curve" smooth="yes"/>
      <point x="122" y="991"/>
      <point x="86" y="961"/>
      <point x="86" y="920" type="curve" smooth="yes"/>
      <point x="86" y="910"/>
      <point x="88" y="898"/>
      <point x="93" y="887" type="curve" smooth="yes"/>
      <point x="474" y="68" type="line"/>
      <point x="311" y="-290" type="line" smooth="yes"/>
      <point x="306" y="-302"/>
      <point x="303" y="-313"/>
      <point x="303" y="-323" type="curve" smooth="yes"/>
      <point x="303" y="-359"/>
      <point x="335" y="-383"/>
      <point x="369" y="-383" type="curve" smooth="yes"/>
      <point x="398" y="-383"/>
      <point x="428" y="-367"/>
    </contour>
  </outline>
</glyph>
<glyph name="asciitilde" format="1">
  <advance width="1345"/>
  <unicode hex="007E"/>
  <outline>
    <contour>
      <point x="765" y="1184" type="curve" smooth="yes"/>
      <point x="850" y="1184"/>
      <point x="899" y="1227"/>
      <point x="928" y="1293" type="curve" smooth="yes"/>
      <point x="931" y="1298"/>
      <point x="932" y="1303"/>
      <point x="932" y="1308" type="curve" smooth="yes"/>
      <point x="932" y="1330"/>
      <point x="908" y="1352"/>
      <point x="884" y="1352" type="curve" smooth="yes"/>
      <point x="871" y="1352"/>
      <point x="857" y="1346"/>
      <point x="847" y="1330" type="curve" smooth="yes"/>
      <point x="832" y="1307"/>
      <point x="803" y="1296"/>
      <point x="778" y="1296" type="curve" smooth="yes"/>
      <point x="712" y="1296"/>
      <point x="624" y="1358"/>
      <point x="537" y="1358" type="curve" smooth="yes"/>
      <point x="459" y="1358"/>
      <point x="409" y="1322"/>
      <point x="373" y="1255" type="curve" smooth="yes"/>
      <point x="369" y="1248"/>
      <point x="367" y="1241"/>
      <point x="367" y="1234" type="curve" smooth="yes"/>
      <point x="367" y="1209"/>
      <point x="393" y="1190"/>
      <point x="417" y="1190" type="curve" smooth="yes"/>
      <point x="431" y="1190"/>
      <point x="445" y="1197"/>
      <point x="453" y="1212" type="curve" smooth="yes"/>
      <point x="470" y="1244"/>
      <point x="500" y="1250"/>
      <point x="529" y="1250" type="curve" smooth="yes"/>
      <point x="600" y="1250"/>
      <point x="691" y="1184"/>
    </contour>
  </outline>
</glyph>
<glyph name="currency" format="1">
  <advance width="1154"/>
  <unicode hex="00A4"/>
  <outline>
    <contour>
      <point x="194" y="159" type="curve" smooth="yes"/>
      <point x="207" y="159"/>
      <point x="219" y="164"/>
      <point x="229" y="175" type="curve" smooth="yes"/>
      <point x="317" y="262" type="line"/>
      <point x="385" y="212"/>
      <point x="473" y="182"/>
      <point x="582" y="182" type="curve" smooth="yes"/>
      <point x="692" y="182"/>
      <point x="779" y="211"/>
      <point x="847" y="263" type="curve"/>
      <point x="936" y="175" type="line" smooth="yes"/>
      <point x="946" y="165"/>
      <point x="956" y="159"/>
      <point x="967" y="159" type="curve" smooth="yes"/>
      <point x="994" y="159"/>
      <point x="1020" y="181"/>
      <point x="1020" y="210" type="curve" smooth="yes"/>
      <point x="1020" y="221"/>
      <point x="1016" y="234"/>
      <point x="1005" y="245" type="curve" smooth="yes"/>
      <point x="918" y="330" type="line"/>
      <point x="978" y="406"/>
      <point x="1009" y="503"/>
      <point x="1009" y="600" type="curve" smooth="yes"/>
      <point x="1009" y="695"/>
      <point x="980" y="790"/>
      <point x="919" y="866" type="curve"/>
      <point x="1005" y="951" type="line" smooth="yes"/>
      <point x="1016" y="961"/>
      <point x="1020" y="974"/>
      <point x="1020" y="984" type="curve" smooth="yes"/>
      <point x="1020" y="1012"/>
      <point x="996" y="1035"/>
      <point x="970" y="1035" type="curve" smooth="yes"/>
      <point x="958" y="1035"/>
      <point x="946" y="1030"/>
      <point x="935" y="1019" type="curve" smooth="yes"/>
      <point x="851" y="935" type="line"/>
      <point x="783" y="986"/>
      <point x="693" y="1019"/>
      <point x="582" y="1019" type="curve" smooth="yes"/>
      <point x="469" y="1019"/>
      <point x="381" y="987"/>
      <point x="313" y="935" type="curve"/>
      <point x="229" y="1019" type="line" smooth="yes"/>
      <point x="219" y="1030"/>
      <point x="207" y="1035"/>
      <point x="195" y="1035" type="curve" smooth="yes"/>
      <point x="168" y="1035"/>
      <point x="145" y="1012"/>
      <point x="145" y="986" type="curve" smooth="yes"/>
      <point x="145" y="973"/>
      <point x="150" y="961"/>
      <point x="161" y="951" type="curve" smooth="yes"/>
      <point x="244" y="866" type="line"/>
      <point x="184" y="790"/>
      <point x="155" y="696"/>
      <point x="155" y="600" type="curve" smooth="yes"/>
      <point x="155" y="503"/>
      <point x="185" y="406"/>
      <point x="246" y="330" type="curve"/>
      <point x="161" y="245" type="line" smooth="yes"/>
      <point x="150" y="234"/>
      <point x="145" y="222"/>
      <point x="145" y="210" type="curve" smooth="yes"/>
      <point x="145" y="182"/>
      <point x="168" y="159"/>
    </contour>
    <contour>
      <point x="582" y="282" type="curve" smooth="yes"/>
      <point x="378" y="282"/>
      <point x="275" y="441"/>
      <point x="275" y="600" type="curve" smooth="yes"/>
      <point x="275" y="758"/>
      <point x="378" y="919"/>
      <point x="582" y="919" type="curve" smooth="yes"/>
      <point x="786" y="919"/>
      <point x="888" y="758"/>
      <point x="888" y="600" type="curve" smooth="yes"/>
      <point x="888" y="441"/>
      <point x="786" y="282"/>
    </contour>
  </outline>
</glyph>
<glyph name="uni00B2" format="1">
  <advance width="743"/>
  <unicode hex="00B2"/>
  <outline>
    <contour>
      <point x="163" y="562" type="curve" smooth="yes"/>
      <point x="594" y="562" type="line" smooth="yes"/>
      <point x="620" y="562"/>
      <point x="634" y="582"/>
      <point x="634" y="602" type="curve" smooth="yes"/>
      <point x="634" y="621"/>
      <point x="619" y="642"/>
      <point x="594" y="642" type="curve" smooth="yes"/>
      <point x="203" y="642" type="line"/>
      <point x="351" y="773"/>
      <point x="624" y="1013"/>
      <point x="624" y="1200" type="curve" smooth="yes"/>
      <point x="624" y="1332"/>
      <point x="506" y="1399"/>
      <point x="376" y="1399" type="curve" smooth="yes"/>
      <point x="280" y="1399"/>
      <point x="142" y="1340"/>
      <point x="142" y="1290" type="curve" smooth="yes"/>
      <point x="142" y="1273"/>
      <point x="157" y="1258"/>
      <point x="179" y="1258" type="curve" smooth="yes"/>
      <point x="190" y="1258"/>
      <point x="201" y="1261"/>
      <point x="212" y="1269" type="curve" smooth="yes"/>
      <point x="251" y="1292"/>
      <point x="311" y="1319"/>
      <point x="370" y="1319" type="curve" smooth="yes"/>
      <point x="448" y="1319"/>
      <point x="525" y="1274"/>
      <point x="525" y="1193" type="curve" smooth="yes"/>
      <point x="525" y="1042"/>
      <point x="222" y="766"/>
      <point x="101" y="657" type="curve" smooth="yes"/>
      <point x="88" y="648"/>
      <point x="92" y="630"/>
      <point x="92" y="613" type="curve" smooth="yes"/>
      <point x="92" y="583"/>
      <point x="113" y="562"/>
    </contour>
  </outline>
</glyph>
<glyph name="Thorn" format="1">
  <advance width="1268"/>
  <unicode hex="00DE"/>
  <outline>
    <contour>
      <point x="280" y="-1" type="curve" smooth="yes"/>
      <point x="319" y="-1"/>
      <point x="360" y="23"/>
      <point x="360" y="75" type="curve" smooth="yes"/>
      <point x="360" y="419" type="line"/>
      <point x="626" y="419" type="line" smooth="yes"/>
      <point x="909" y="419"/>
      <point x="1200" y="501"/>
      <point x="1200" y="826" type="curve" smooth="yes"/>
      <point x="1200" y="1148"/>
      <point x="911" y="1234"/>
      <point x="631" y="1234" type="curve" smooth="yes"/>
      <point x="360" y="1234" type="line"/>
      <point x="360" y="1355" type="line" smooth="yes"/>
      <point x="360" y="1405"/>
      <point x="319" y="1431"/>
      <point x="278" y="1431" type="curve" smooth="yes"/>
      <point x="238" y="1431"/>
      <point x="199" y="1406"/>
      <point x="199" y="1355" type="curve" smooth="yes"/>
      <point x="199" y="75" type="line" smooth="yes"/>
      <point x="199" y="24"/>
      <point x="238" y="-1"/>
    </contour>
    <contour>
      <point x="360" y="551" type="line"/>
      <point x="360" y="1101" type="line"/>
      <point x="668" y="1101" type="line" smooth="yes"/>
      <point x="861" y="1101"/>
      <point x="1029" y="1042"/>
      <point x="1029" y="826" type="curve" smooth="yes"/>
      <point x="1029" y="610"/>
      <point x="861" y="551"/>
      <point x="666" y="551" type="curve" smooth="yes"/>
    </contour>
  </outline>
</glyph>
<glyph name="oslash" format="1">
  <advance width="1133"/>
  <unicode hex="00F8"/>
  <outline>
    <component base="o"/>
    <contour>
      <point x="361" y="-183" type="curve" smooth="yes"/>
      <point x="386" y="-183"/>
      <point x="409" y="-171"/>
      <point x="421" y="-140" type="curve" smooth="yes"/>
      <point x="870" y="1099" type="line" smooth="yes"/>
      <point x="873" y="1108"/>
      <point x="873" y="1114"/>
      <point x="873" y="1121" type="curve" smooth="yes"/>
      <point x="873" y="1158"/>
      <point x="842" y="1179"/>
      <point x="810" y="1179" type="curve" smooth="yes"/>
      <point x="783" y="1179"/>
      <point x="758" y="1166"/>
      <point x="746" y="1135" type="curve" smooth="yes"/>
      <point x="301" y="-101" type="line" smooth="yes"/>
      <point x="299" y="-108"/>
      <point x="298" y="-116"/>
      <point x="298" y="-124" type="curve" smooth="yes"/>
      <point x="298" y="-161"/>
      <point x="328" y="-183"/>
    </contour>
  </outline>
</glyph>
<glyph name="thorn" format="1">
  <advance width="1150"/>
  <unicode hex="00FE"/>
  <outline>
    <contour>
      <point x="210" y="-343" type="curve" smooth="yes"/>
      <point x="246" y="-343"/>
      <point x="281" y="-318"/>
      <point x="281" y="-269" type="curve" smooth="yes"/>
      <point x="281" y="171" type="line"/>
      <point x="370" y="36"/>
      <point x="498" y="-29"/>
      <point x="647" y="-29" type="curve" smooth="yes"/>
      <point x="942" y="-29"/>
      <point x="1061" y="245"/>
      <point x="1061" y="499" type="curve" smooth="yes"/>
      <point x="1061" y="763"/>
      <point x="941" y="1019"/>
      <point x="641" y="1019" type="curve" smooth="yes"/>
      <point x="505" y="1019"/>
      <point x="359" y="954"/>
      <point x="286" y="830" type="curve"/>
      <point x="286" y="1357" type="line" smooth="yes"/>
      <point x="286" y="1401"/>
      <point x="251" y="1423"/>
      <point x="214" y="1423" type="curve" smooth="yes"/>
      <point x="178" y="1423"/>
      <point x="140" y="1400"/>
      <point x="140" y="1357" type="curve" smooth="yes"/>
      <point x="140" y="-269" type="line" smooth="yes"/>
      <point x="140" y="-318"/>
      <point x="175" y="-343"/>
    </contour>
    <contour>
      <point x="621" y="91" type="curve" smooth="yes"/>
      <point x="365" y="91"/>
      <point x="286" y="289"/>
      <point x="286" y="514" type="curve" smooth="yes"/>
      <point x="286" y="713"/>
      <point x="375" y="899"/>
      <point x="604" y="899" type="curve" smooth="yes"/>
      <point x="829" y="899"/>
      <point x="906" y="696"/>
      <point x="906" y="508" type="curve" smooth="yes"/>
      <point x="906" y="327"/>
      <point x="850" y="91"/>
    </contour>
  </outline>
</glyph>
<glyph name="lslash" format="1">
  <advance width="631"/>
  <unicode hex="0142"/>
  <outline>
    <component base="l" xOffset="59"/>
    <contour>
      <point x="109" y="586" type="curve" smooth="yes"/>
      <point x="119" y="586"/>
      <point x="128" y="589"/>
      <point x="137" y="593" type="curve" smooth="yes"/>
      <point x="567" y="842" type="line" smooth="yes"/>
      <point x="591" y="856"/>
      <point x="597" y="872"/>
      <point x="597" y="893" type="curve" smooth="yes"/>
      <point x="597" y="928"/>
      <point x="570" y="961"/>
      <point x="532" y="961" type="curve" smooth="yes"/>
      <point x="525" y="961"/>
      <point x="516" y="959"/>
      <point x="504" y="954" type="curve"/>
      <point x="79" y="708" type="line" smooth="yes"/>
      <point x="55" y="695"/>
      <point x="45" y="675"/>
      <point x="45" y="654" type="curve" smooth="yes"/>
      <point x="45" y="620"/>
      <point x="72" y="586"/>
    </contour>
  </outline>
</glyph>
<glyph name="uni0237" format="1">
  <advance width="468"/>
  <unicode hex="0237"/>
  <outline>
    <contour>
      <point x="236" y="991" type="move" name="top"/>
    </contour>
    <contour>
      <point x="2" y="-376" type="curve" smooth="yes"/>
      <point x="297" y="-376"/>
      <point x="308" y="-284"/>
      <point x="308" y="-36" type="curve" smooth="yes"/>
      <point x="308" y="919" type="line" smooth="yes"/>
      <point x="308" y="966"/>
      <point x="268" y="990"/>
      <point x="236" y="990" type="curve" smooth="yes"/>
      <point x="202" y="990"/>
      <point x="162" y="966"/>
      <point x="162" y="920" type="curve" smooth="yes"/>
      <point x="162" y="-81" type="line" smooth="yes"/>
      <point x="162" y="-245"/>
      <point x="146" y="-259"/>
      <point x="3" y="-258" type="curve" smooth="yes"/>
      <point x="-68" y="-258"/>
      <point x="-72" y="-376"/>
    </contour>
  </outline>
</glyph>
<glyph name="apostrophemod" format="1">
  <advance width="600"/>
  <unicode hex="02BC"/>
  <outline>
    <contour>
      <point x="246" y="256" type="move" name="_top.2"/>
    </contour>
    <contour>
      <point x="202" y="311" type="curve" smooth="yes"/>
      <point x="237" y="311" type="line" smooth="yes"/>
      <point x="266" y="310"/>
      <point x="282" y="322"/>
      <point x="293" y="354" type="curve" smooth="yes"/>
      <point x="452" y="821" type="line" smooth="yes"/>
      <point x="457" y="835"/>
      <point x="460" y="874"/>
      <point x="418" y="877" type="curve" smooth="yes"/>
      <point x="335" y="877" type="line" smooth="yes"/>
      <point x="303" y="876"/>
      <point x="270" y="868"/>
      <point x="262" y="821" type="curve" smooth="yes"/>
      <point x="178" y="354" type="line" smooth="yes"/>
      <point x="176" y="342"/>
      <point x="174" y="312"/>
    </contour>
  </outline>
</glyph>
<glyph name="caron" format="1">
  <advance width="569"/>
  <unicode hex="02C7"/>
  <outline>
    <contour>
      <point x="296" y="1040" type="move" name="_top"/>
    </contour>
    <contour>
      <point x="285" y="1114" type="curve" smooth="yes"/>
      <point x="313" y="1114"/>
      <point x="343" y="1129"/>
      <point x="367" y="1163" type="curve" smooth="yes"/>
      <point x="555" y="1432" type="line" smooth="yes"/>
      <point x="566" y="1446"/>
      <point x="570" y="1461"/>
      <point x="570" y="1476" type="curve" smooth="yes"/>
      <point x="570" y="1505"/>
      <point x="546" y="1528"/>
      <point x="517" y="1528" type="curve" smooth="yes"/>
      <point x="498" y="1528"/>
      <point x="478" y="1519"/>
      <point x="460" y="1495" type="curve" smooth="yes"/>
      <point x="285" y="1260" type="line"/>
      <point x="109" y="1495" type="line" smooth="yes"/>
      <point x="91" y="1519"/>
      <point x="71" y="1528"/>
      <point x="52" y="1528" type="curve" smooth="yes"/>
      <point x="22" y="1528"/>
      <point x="-1" y="1505"/>
      <point x="-1" y="1475" type="curve" smooth="yes"/>
      <point x="-1" y="1463"/>
      <point x="2" y="1448"/>
      <point x="14" y="1432" type="curve" smooth="yes"/>
      <point x="202" y="1163" type="line" smooth="yes"/>
      <point x="224" y="1131"/>
      <point x="255" y="1114"/>
    </contour>
  </outline>
</glyph>
<glyph name="breve" format="1">
  <advance width="569"/>
  <unicode hex="02D8"/>
  <outline>
    <contour>
      <point x="285" y="1255" type="curve" smooth="yes"/>
      <point x="410" y="1255"/>
      <point x="503" y="1310"/>
      <point x="545" y="1404" type="curve" smooth="yes"/>
      <point x="549" y="1412"/>
      <point x="551" y="1419"/>
      <point x="551" y="1426" type="curve" smooth="yes"/>
      <point x="551" y="1452"/>
      <point x="529" y="1468"/>
      <point x="504" y="1468" type="curve" smooth="yes"/>
      <point x="486" y="1468"/>
      <point x="472" y="1459"/>
      <point x="460" y="1444" type="curve" smooth="yes"/>
      <point x="414" y="1383"/>
      <point x="374" y="1361"/>
      <point x="285" y="1361" type="curve" smooth="yes"/>
      <point x="195" y="1361"/>
      <point x="154" y="1383"/>
      <point x="110" y="1444" type="curve" smooth="yes"/>
      <point x="99" y="1459"/>
      <point x="83" y="1468"/>
      <point x="66" y="1468" type="curve" smooth="yes"/>
      <point x="41" y="1468"/>
      <point x="19" y="1452"/>
      <point x="19" y="1426" type="curve" smooth="yes"/>
      <point x="19" y="1419"/>
      <point x="21" y="1412"/>
      <point x="25" y="1404" type="curve" smooth="yes"/>
      <point x="67" y="1310"/>
      <point x="160" y="1255"/>
    </contour>
  </outline>
</glyph>
<glyph name="hungarumlaut" format="1">
  <advance width="569"/>
  <unicode hex="02DD"/>
  <outline>
    <contour>
      <point x="174" y="1040" type="move" name="_top"/>
    </contour>
    <contour>
      <point x="323" y="1103" type="curve" smooth="yes"/>
      <point x="334" y="1103"/>
      <point x="347" y="1107"/>
      <point x="362" y="1118" type="curve" smooth="yes"/>
      <point x="685" y="1364" type="line" smooth="yes"/>
      <point x="700" y="1375"/>
      <point x="707" y="1391"/>
      <point x="707" y="1407" type="curve" smooth="yes"/>
      <point x="707" y="1448"/>
      <point x="663" y="1490"/>
      <point x="620" y="1490" type="curve" smooth="yes"/>
      <point x="602" y="1490"/>
      <point x="586" y="1483"/>
      <point x="572" y="1467" type="curve" smooth="yes"/>
      <point x="300" y="1169" type="line" smooth="yes"/>
      <point x="290" y="1158"/>
      <point x="288" y="1148"/>
      <point x="288" y="1137" type="curve" smooth="yes"/>
      <point x="288" y="1119"/>
      <point x="301" y="1103"/>
    </contour>
    <contour>
      <point x="21" y="1103" type="curve" smooth="yes"/>
      <point x="32" y="1103"/>
      <point x="46" y="1107"/>
      <point x="61" y="1118" type="curve" smooth="yes"/>
      <point x="384" y="1364" type="line" smooth="yes"/>
      <point x="399" y="1375"/>
      <point x="405" y="1390"/>
      <point x="405" y="1406" type="curve" smooth="yes"/>
      <point x="405" y="1448"/>
      <point x="362" y="1490"/>
      <point x="319" y="1490" type="curve" smooth="yes"/>
      <point x="301" y="1490"/>
      <point x="285" y="1483"/>
      <point x="271" y="1467" type="curve" smooth="yes"/>
      <point x="-1" y="1169" type="line" smooth="yes"/>
      <point x="-11" y="1158"/>
      <point x="-14" y="1148"/>
      <point x="-14" y="1137" type="curve" smooth="yes"/>
      <point x="-14" y="1117"/>
      <point x="-1" y="1103"/>
    </contour>
  </outline>
</glyph>
<glyph name="uni030F" format="1">
  <advance width="569"/>
  <unicode hex="030F"/>
  <outline>
    <contour>
      <point x="488" y="1035" type="move" name="_top"/>
    </contour>
    <contour>
      <point x="606" y="1136" type="curve" smooth="yes"/>
      <point x="628" y="1136"/>
      <point x="642" y="1151"/>
      <point x="641" y="1171" type="curve" smooth="yes"/>
      <point x="640" y="1181"/>
      <point x="638" y="1191"/>
      <point x="629" y="1201" type="curve" smooth="yes"/>
      <point x="353" y="1503" type="line" smooth="yes"/>
      <point x="338" y="1519"/>
      <point x="325" y="1524"/>
      <point x="308" y="1524" type="curve" smooth="yes"/>
      <point x="265" y="1524"/>
      <point x="221" y="1481"/>
      <point x="221" y="1440" type="curve" smooth="yes"/>
      <point x="221" y="1425"/>
      <point x="228" y="1409"/>
      <point x="243" y="1397" type="curve" smooth="yes"/>
      <point x="569" y="1150" type="line" smooth="yes"/>
      <point x="583" y="1139"/>
      <point x="595" y="1136"/>
    </contour>
    <contour>
      <point x="305" y="1136" type="curve" smooth="yes"/>
      <point x="327" y="1136"/>
      <point x="340" y="1152"/>
      <point x="340" y="1171" type="curve" smooth="yes"/>
      <point x="339" y="1181"/>
      <point x="338" y="1190"/>
      <point x="329" y="1200" type="curve" smooth="yes"/>
      <point x="53" y="1503" type="line" smooth="yes"/>
      <point x="37" y="1519"/>
      <point x="24" y="1524"/>
      <point x="7" y="1524" type="curve" smooth="yes"/>
      <point x="-37" y="1524"/>
      <point x="-80" y="1480"/>
      <point x="-80" y="1439" type="curve" smooth="yes"/>
      <point x="-80" y="1424"/>
      <point x="-73" y="1409"/>
      <point x="-58" y="1397" type="curve" smooth="yes"/>
      <point x="267" y="1151" type="line" smooth="yes"/>
      <point x="281" y="1139"/>
      <point x="294" y="1136"/>
    </contour>
  </outline>
</glyph>
<glyph name="uni0311" format="1">
  <advance width="569"/>
  <unicode hex="0311"/>
  <outline>
    <contour>
      <point x="286" y="1040" type="move" name="_top"/>
    </contour>
    <contour>
      <point x="69" y="1270" type="curve" smooth="yes"/>
      <point x="88" y="1270"/>
      <point x="104" y="1278"/>
      <point x="116" y="1296" type="curve" smooth="yes"/>
      <point x="158" y="1356"/>
      <point x="199" y="1377"/>
      <point x="285" y="1377" type="curve" smooth="yes"/>
      <point x="371" y="1377"/>
      <point x="410" y="1356"/>
      <point x="454" y="1296" type="curve" smooth="yes"/>
      <point x="467" y="1278"/>
      <point x="482" y="1270"/>
      <point x="501" y="1270" type="curve" smooth="yes"/>
      <point x="527" y="1270"/>
      <point x="549" y="1286"/>
      <point x="549" y="1314" type="curve" smooth="yes"/>
      <point x="549" y="1320"/>
      <point x="548" y="1329"/>
      <point x="544" y="1338" type="curve" smooth="yes"/>
      <point x="502" y="1432"/>
      <point x="409" y="1487"/>
      <point x="285" y="1487" type="curve" smooth="yes"/>
      <point x="161" y="1487"/>
      <point x="68" y="1432"/>
      <point x="26" y="1338" type="curve" smooth="yes"/>
      <point x="22" y="1329"/>
      <point x="21" y="1320"/>
      <point x="21" y="1314" type="curve" smooth="yes"/>
      <point x="21" y="1286"/>
      <point x="43" y="1270"/>
    </contour>
  </outline>
</glyph>
<glyph name="uni0312" format="1">
  <advance width="600"/>
  <unicode hex="0312"/>
  <outline>
    <contour>
      <point x="233" y="1211" type="curve"/>
      <point x="316" y="1211" type="line"/>
      <point x="348" y="1212"/>
      <point x="381" y="1220"/>
      <point x="389" y="1267" type="curve" smooth="yes"/>
      <point x="473" y="1734" type="line" smooth="yes"/>
      <point x="474" y="1737"/>
      <point x="474" y="1741"/>
      <point x="474" y="1746" type="curve" smooth="yes"/>
      <point x="474" y="1759"/>
      <point x="470" y="1776"/>
      <point x="449" y="1777" type="curve" smooth="yes"/>
      <point x="414" y="1777" type="line" smooth="yes"/>
      <point x="411" y="1777" type="line" smooth="yes"/>
      <point x="384" y="1777"/>
      <point x="369" y="1765"/>
      <point x="358" y="1734" type="curve" smooth="yes"/>
      <point x="199" y="1267" type="line" smooth="yes"/>
      <point x="198" y="1263"/>
      <point x="196" y="1256"/>
      <point x="196" y="1249" type="curve" smooth="yes"/>
      <point x="196" y="1233"/>
      <point x="204" y="1213"/>
    </contour>
  </outline>
</glyph>
<glyph name="commaaccent" format="1">
  <advance width="578"/>
  <unicode hex="0326"/>
  <outline>
    <contour>
      <point x="305" y="0" type="move" name="_bot"/>
    </contour>
    <contour>
      <point x="160" y="-588" type="curve" smooth="yes"/>
      <point x="175" y="-588" type="line" smooth="yes"/>
      <point x="204" y="-589"/>
      <point x="220" y="-577"/>
      <point x="231" y="-545" type="curve" smooth="yes"/>
      <point x="358" y="-160" type="line" smooth="yes"/>
      <point x="363" y="-146"/>
      <point x="366" y="-107"/>
      <point x="324" y="-104" type="curve" smooth="yes"/>
      <point x="271" y="-104" type="line" smooth="yes"/>
      <point x="239" y="-105"/>
      <point x="206" y="-113"/>
      <point x="198" y="-160" type="curve" smooth="yes"/>
      <point x="136" y="-545" type="line" smooth="yes"/>
      <point x="134" y="-557"/>
      <point x="132" y="-587"/>
    </contour>
  </outline>
</glyph>
<glyph name="uni0326" format="1">
  <advance width="578"/>
  <unicode hex="0326"/>
  <outline>
    <contour>
      <point x="160" y="-588" type="curve" smooth="yes"/>
      <point x="175" y="-588" type="line" smooth="yes"/>
      <point x="178" y="-588" type="line" smooth="yes"/>
      <point x="205" y="-588"/>
      <point x="220" y="-576"/>
      <point x="231" y="-545" type="curve" smooth="yes"/>
      <point x="358" y="-160" type="line" smooth="yes"/>
      <point x="359" y="-156"/>
      <point x="361" y="-149"/>
      <point x="361" y="-142" type="curve" smooth="yes"/>
      <point x="361" y="-126"/>
      <point x="353" y="-106"/>
      <point x="324" y="-104" type="curve"/>
      <point x="271" y="-104" type="line"/>
      <point x="239" y="-105"/>
      <point x="206" y="-113"/>
      <point x="198" y="-160" type="curve" smooth="yes"/>
      <point x="136" y="-545" type="line" smooth="yes"/>
      <point x="135" y="-548"/>
      <point x="135" y="-552"/>
      <point x="135" y="-557" type="curve" smooth="yes"/>
      <point x="135" y="-570"/>
      <point x="139" y="-587"/>
    </contour>
  </outline>
</glyph>
<glyph name="uni0394" format="1">
  <advance width="1178"/>
  <unicode hex="0394"/>
  <outline>
    <contour>
      <point x="163" y="84" type="line"/>
      <point x="590" y="1240" type="line"/>
      <point x="1021" y="84" type="line"/>
    </contour>
    <contour>
      <point x="1" y="0" type="line"/>
      <point x="1178" y="0" type="line"/>
      <point x="643" y="1387" type="line" smooth="yes"/>
      <point x="621" y="1446"/>
      <point x="563" y="1447"/>
      <point x="538" y="1387" type="curve" smooth="yes"/>
    </contour>
  </outline>
</glyph>
<glyph name="pi" format="1">
  <advance width="1182"/>
  <unicode hex="03C0"/>
  <outline>
    <contour>
      <point x="948" y="-23" type="curve" smooth="yes"/>
      <point x="993" y="-14"/>
      <point x="1007" y="-2"/>
      <point x="1007" y="20" type="curve" smooth="yes"/>
      <point x="1007" y="62"/>
      <point x="954" y="141"/>
      <point x="954" y="295" type="curve" smooth="yes"/>
      <point x="954" y="937" type="line"/>
      <point x="1031" y="937" type="line" smooth="yes"/>
      <point x="1076" y="937"/>
      <point x="1098" y="966"/>
      <point x="1098" y="999" type="curve" smooth="yes"/>
      <point x="1098" y="1030"/>
      <point x="1076" y="1062"/>
      <point x="1031" y="1062" type="curve" smooth="yes"/>
      <point x="214" y="1062" type="line" smooth="yes"/>
      <point x="157" y="1062"/>
      <point x="130" y="1030"/>
      <point x="130" y="999" type="curve" smooth="yes"/>
      <point x="130" y="966"/>
      <point x="157" y="937"/>
      <point x="214" y="937" type="curve" smooth="yes"/>
      <point x="284" y="937" type="line"/>
      <point x="284" y="570"/>
      <point x="201" y="255"/>
      <point x="132" y="65" type="curve" smooth="yes"/>
      <point x="127" y="52"/>
      <point x="125" y="39"/>
      <point x="125" y="28" type="curve" smooth="yes"/>
      <point x="125" y="-14"/>
      <point x="156" y="-38"/>
      <point x="191" y="-38" type="curve" smooth="yes"/>
      <point x="221" y="-38"/>
      <point x="254" y="-19"/>
      <point x="272" y="23" type="curve" smooth="yes"/>
      <point x="349" y="212"/>
      <point x="415" y="664"/>
      <point x="428" y="937" type="curve"/>
      <point x="805" y="937" type="line"/>
      <point x="805" y="272" type="line" smooth="yes"/>
      <point x="805" y="115"/>
      <point x="817" y="-26"/>
      <point x="921" y="-26" type="curve" smooth="yes"/>
      <point x="929" y="-26"/>
      <point x="939" y="-25"/>
    </contour>
  </outline>
</glyph>
<glyph name="quoteleft" format="1">
  <advance width="578"/>
  <unicode hex="2018"/>
  <outline>
    <contour>
      <point x="197" y="1025" type="curve" smooth="yes"/>
      <point x="278" y="1025" type="line"/>
      <point x="310" y="1026"/>
      <point x="343" y="1034"/>
      <point x="351" y="1081" type="curve" smooth="yes"/>
      <point x="404" y="1381" type="line" smooth="yes"/>
      <point x="405" y="1384"/>
      <point x="405" y="1388"/>
      <point x="405" y="1393" type="curve" smooth="yes"/>
      <point x="405" y="1407"/>
      <point x="401" y="1424"/>
      <point x="380" y="1424" type="curve" smooth="yes"/>
      <point x="345" y="1424" type="line" smooth="yes"/>
      <point x="316" y="1424"/>
      <point x="303" y="1413"/>
      <point x="289" y="1381" type="curve" smooth="yes"/>
      <point x="163" y="1081" type="line" smooth="yes"/>
      <point x="161" y="1077"/>
      <point x="159" y="1070"/>
      <point x="159" y="1063" type="curve" smooth="yes"/>
      <point x="159" y="1046"/>
      <point x="168" y="1025"/>
    </contour>
  </outline>
</glyph>
<glyph name="quotesinglbase" format="1">
  <advance width="578"/>
  <unicode hex="201A"/>
  <outline>
    <contour>
      <point x="204" y="-217" type="curve" smooth="yes"/>
      <point x="238" y="-217" type="line" smooth="yes"/>
      <point x="269" y="-217"/>
      <point x="281" y="-206"/>
      <point x="294" y="-174" type="curve" smooth="yes"/>
      <point x="421" y="127" type="line" smooth="yes"/>
      <point x="423" y="131"/>
      <point x="424" y="138"/>
      <point x="424" y="145" type="curve" smooth="yes"/>
      <point x="424" y="162"/>
      <point x="416" y="183"/>
      <point x="387" y="183" type="curve" smooth="yes"/>
      <point x="306" y="183" type="line"/>
      <point x="274" y="182"/>
      <point x="241" y="174"/>
      <point x="233" y="127" type="curve" smooth="yes"/>
      <point x="180" y="-174" type="line" smooth="yes"/>
      <point x="179" y="-177"/>
      <point x="179" y="-181"/>
      <point x="179" y="-186" type="curve" smooth="yes"/>
      <point x="179" y="-199"/>
      <point x="183" y="-216"/>
    </contour>
  </outline>
</glyph>
<glyph name="quotedblbase" format="1">
  <advance width="1143"/>
  <unicode hex="201E"/>
  <outline>
    <contour>
      <point x="292" y="-228" type="curve" smooth="yes"/>
      <point x="326" y="-228" type="line" smooth="yes"/>
      <point x="329" y="-228" type="line" smooth="yes"/>
      <point x="356" y="-228"/>
      <point x="369" y="-216"/>
      <point x="382" y="-185" type="curve" smooth="yes"/>
      <point x="509" y="117" type="line" smooth="yes"/>
      <point x="511" y="121"/>
      <point x="512" y="128"/>
      <point x="512" y="135" type="curve" smooth="yes"/>
      <point x="512" y="151"/>
      <point x="504" y="171"/>
      <point x="475" y="173" type="curve"/>
      <point x="394" y="173" type="line"/>
      <point x="362" y="172"/>
      <point x="329" y="164"/>
      <point x="321" y="117" type="curve" smooth="yes"/>
      <point x="268" y="-185" type="line" smooth="yes"/>
      <point x="267" y="-188"/>
      <point x="267" y="-192"/>
      <point x="267" y="-197" type="curve" smooth="yes"/>
      <point x="267" y="-210"/>
      <point x="271" y="-227"/>
    </contour>
    <contour>
      <point x="680" y="-228" type="curve" smooth="yes"/>
      <point x="715" y="-228" type="line" smooth="yes"/>
      <point x="718" y="-228" type="line" smooth="yes"/>
      <point x="745" y="-228"/>
      <point x="758" y="-216"/>
      <point x="771" y="-185" type="curve" smooth="yes"/>
      <point x="897" y="117" type="line" smooth="yes"/>
      <point x="899" y="121"/>
      <point x="901" y="128"/>
      <point x="901" y="135" type="curve" smooth="yes"/>
      <point x="901" y="151"/>
      <point x="892" y="171"/>
      <point x="863" y="173" type="curve"/>
      <point x="782" y="173" type="line"/>
      <point x="750" y="172"/>
      <point x="717" y="164"/>
      <point x="709" y="117" type="curve" smooth="yes"/>
      <point x="656" y="-185" type="line" smooth="yes"/>
      <point x="655" y="-188"/>
      <point x="655" y="-192"/>
      <point x="655" y="-197" type="curve" smooth="yes"/>
      <point x="655" y="-210"/>
      <point x="659" y="-227"/>
    </contour>
  </outline>
</glyph>
<glyph name="uni2074" format="1">
  <advance width="718"/>
  <unicode hex="2074"/>
  <outline>
    <contour>
      <point x="114" y="819" type="line"/>
      <point x="435" y="1309" type="line"/>
      <point x="435" y="819" type="line"/>
    </contour>
    <contour>
      <point x="482" y="560" type="curve" smooth="yes"/>
      <point x="505" y="560"/>
      <point x="527" y="575"/>
      <point x="527" y="605" type="curve" smooth="yes"/>
      <point x="527" y="750" type="line"/>
      <point x="624" y="750" type="line" smooth="yes"/>
      <point x="649" y="750"/>
      <point x="660" y="766"/>
      <point x="660" y="784" type="curve" smooth="yes"/>
      <point x="660" y="803"/>
      <point x="647" y="819"/>
      <point x="624" y="819" type="curve" smooth="yes"/>
      <point x="527" y="819" type="line"/>
      <point x="527" y="1331" type="line" smooth="yes"/>
      <point x="527" y="1379"/>
      <point x="497" y="1399"/>
      <point x="461" y="1399" type="curve" smooth="yes"/>
      <point x="432" y="1399"/>
      <point x="405" y="1386"/>
      <point x="386" y="1356" type="curve" smooth="yes"/>
      <point x="44" y="839" type="line" smooth="yes"/>
      <point x="36" y="828"/>
      <point x="32" y="816"/>
      <point x="32" y="803" type="curve" smooth="yes"/>
      <point x="32" y="775"/>
      <point x="53" y="750"/>
      <point x="86" y="750" type="curve" smooth="yes"/>
      <point x="435" y="750" type="line"/>
      <point x="435" y="605" type="line" smooth="yes"/>
      <point x="435" y="575"/>
      <point x="458" y="560"/>
    </contour>
  </outline>
</glyph>
<glyph name="Euro" format="1">
  <advance width="1377"/>
  <unicode hex="20AC"/>
  <outline>
    <component base="C" xOffset="47"/>
    <contour>
      <point x="54" y="505" type="curve" smooth="yes"/>
      <point x="953" y="505" type="line" smooth="yes"/>
      <point x="986" y="505"/>
      <point x="1002" y="532"/>
      <point x="1002" y="560" type="curve" smooth="yes"/>
      <point x="1002" y="589"/>
      <point x="985" y="618"/>
      <point x="954" y="618" type="curve" smooth="yes"/>
      <point x="54" y="618" type="line" smooth="yes"/>
      <point x="26" y="618"/>
      <point x="11" y="589"/>
      <point x="11" y="560" type="curve" smooth="yes"/>
      <point x="11" y="532"/>
      <point x="25" y="505"/>
    </contour>
    <contour>
      <point x="54" y="740" type="curve" smooth="yes"/>
      <point x="953" y="740" type="line" smooth="yes"/>
      <point x="986" y="740"/>
      <point x="1002" y="768"/>
      <point x="1002" y="796" type="curve" smooth="yes"/>
      <point x="1002" y="825"/>
      <point x="985" y="854"/>
      <point x="954" y="854" type="curve" smooth="yes"/>
      <point x="54" y="854" type="line" smooth="yes"/>
      <point x="26" y="854"/>
      <point x="11" y="824"/>
      <point x="11" y="795" type="curve" smooth="yes"/>
      <point x="11" y="767"/>
      <point x="25" y="740"/>
    </contour>
  </outline>
</glyph>
<glyph name="Omega" format="1">
  <advance width="1486"/>
  <unicode hex="2126"/>
  <outline>
    <contour>
      <point x="309" y="0" type="curve" smooth="yes"/>
      <point x="772" y="0" type="line"/>
      <point x="534" y="344"/>
      <point x="328" y="677"/>
      <point x="328" y="922" type="curve" smooth="yes"/>
      <point x="328" y="1158"/>
      <point x="476" y="1314"/>
      <point x="856" y="1314" type="curve" smooth="yes"/>
      <point x="1238" y="1314"/>
      <point x="1386" y="1158"/>
      <point x="1386" y="922" type="curve" smooth="yes"/>
      <point x="1386" y="677"/>
      <point x="1180" y="344"/>
      <point x="942" y="0" type="curve"/>
      <point x="1405" y="0" type="line" smooth="yes"/>
      <point x="1435" y="0"/>
      <point x="1450" y="32"/>
      <point x="1450" y="65" type="curve" smooth="yes"/>
      <point x="1450" y="98"/>
      <point x="1435" y="130"/>
      <point x="1405" y="130" type="curve" smooth="yes"/>
      <point x="1130" y="130" type="line"/>
      <point x="1351" y="378"/>
      <point x="1528" y="670"/>
      <point x="1528" y="922" type="curve" smooth="yes"/>
      <point x="1528" y="1236"/>
      <point x="1380" y="1460"/>
      <point x="856" y="1460" type="curve" smooth="yes"/>
      <point x="390" y="1460"/>
      <point x="186" y="1232"/>
      <point x="186" y="922" type="curve" smooth="yes"/>
      <point x="186" y="670"/>
      <point x="364" y="373"/>
      <point x="584" y="130" type="curve"/>
      <point x="309" y="130" type="line" smooth="yes"/>
      <point x="279" y="130"/>
      <point x="264" y="98"/>
      <point x="264" y="65" type="curve" smooth="yes"/>
      <point x="264" y="32"/>
      <point x="279" y="0"/>
    </contour>
  </outline>
</glyph>
<glyph name="partialdiff" format="1">
  <advance width="1131"/>
  <unicode hex="2202"/>
  <outline>
    <contour>
      <point x="517" y="100" type="line" smooth="yes"/>
      <point x="349" y="100"/>
      <point x="235" y="248"/>
      <point x="235" y="452" type="curve" smooth="yes"/>
      <point x="235" y="673"/>
      <point x="380" y="851"/>
      <point x="552" y="851" type="curve" smooth="yes"/>
      <point x="718" y="851"/>
      <point x="827" y="715"/>
      <point x="858" y="621" type="curve"/>
      <point x="831" y="347"/>
      <point x="709" y="100"/>
      <point x="519" y="100" type="curve" smooth="yes"/>
    </contour>
    <contour>
      <point x="505" y="-24" type="curve" smooth="yes"/>
      <point x="847" y="-24"/>
      <point x="1025" y="348"/>
      <point x="1025" y="821" type="curve" smooth="yes"/>
      <point x="1025" y="1361"/>
      <point x="800" y="1601"/>
      <point x="497" y="1601" type="curve" smooth="yes"/>
      <point x="386" y="1601"/>
      <point x="274" y="1571"/>
      <point x="166" y="1522" type="curve" smooth="yes"/>
      <point x="140" y="1510"/>
      <point x="130" y="1492"/>
      <point x="130" y="1470" type="curve" smooth="yes"/>
      <point x="130" y="1436"/>
      <point x="156" y="1404"/>
      <point x="190" y="1404" type="curve" smooth="yes"/>
      <point x="199" y="1404"/>
      <point x="206" y="1406"/>
      <point x="213" y="1408" type="curve" smooth="yes"/>
      <point x="306" y="1445"/>
      <point x="399" y="1473"/>
      <point x="487" y="1473" type="curve" smooth="yes"/>
      <point x="710" y="1473"/>
      <point x="880" y="1302"/>
      <point x="880" y="864" type="curve" smooth="yes"/>
      <point x="880" y="794"/>
      <point x="879" y="781"/>
      <point x="878" y="770" type="curve"/>
      <point x="874" y="773"/>
      <point x="724" y="972"/>
      <point x="528" y="972" type="curve" smooth="yes"/>
      <point x="295" y="972"/>
      <point x="88" y="769"/>
      <point x="88" y="449" type="curve" smooth="yes"/>
      <point x="88" y="216"/>
      <point x="221" y="-24"/>
    </contour>
  </outline>
</glyph>
<glyph name="lozenge" format="1">
  <advance width="1183"/>
  <unicode hex="25CA"/>
  <outline>
    <contour>
      <point x="589" y="-85" type="curve" smooth="yes"/>
      <point x="612" y="-85"/>
      <point x="634" y="-72"/>
      <point x="650" y="-43" type="curve" smooth="yes"/>
      <point x="1068" y="713" type="line"/>
      <point x="650" y="1479" type="line" smooth="yes"/>
      <point x="635" y="1506"/>
      <point x="615" y="1517"/>
      <point x="592" y="1517" type="curve" smooth="yes"/>
      <point x="571" y="1517"/>
      <point x="548" y="1503"/>
      <point x="533" y="1476" type="curve" smooth="yes"/>
      <point x="117" y="713" type="line"/>
      <point x="533" y="-50" type="line" smooth="yes"/>
      <point x="547" y="-76"/>
      <point x="566" y="-85"/>
    </contour>
    <contour>
      <point x="589" y="77" type="line"/>
      <point x="249" y="717" type="line"/>
      <point x="586" y="1347" type="line"/>
      <point x="593" y="1347" type="line"/>
      <point x="933" y="711" type="line"/>
      <point x="595" y="77" type="line"/>
    </contour>
  </outline>
</glyph>
